# xmcd
#
# Track frame offsets: 
#        150
#        11822
#        22041
#        34883
#        47743
#        59984
#        72236
#        86480
#        99057
#        111953
#        125367
#        138766
#        149009
#        163976
#        177312
#        189017
#        202903
#        214903
#        226060
#        236290
#
# Disc length: 3332 seconds
#
# Revision: 0
# Processed by: cddbd v1.5.2PL0 Copyright (c) Steve Scherf et al.
# Submitted via: ExactAudioCopyFreeDBPlugin 1.0
#
DISCID=190d0214
DTITLE=Various Artist - The RPM Blues Story - CD2
DYEAR=2013
DGENRE=Blues
TTITLE0=Howlin' Wolf - Morning At Midnight
TTITLE1='Little Eddie' Kirkland - That's All Right
TTITLE2=Johnny 'Guitar' Watson - She Moves Me
TTITLE3=B.B. King - Mistreated Woman
TTITLE4=Lowell Fulson - Some Old Lonesome Day
TTITLE5=Lightnin' Hopkins - Lonesome Dog Blues
TTITLE6=Roscoe Gordon - Cold, Cold Winter
TTITLE7=Junior Brooks - Lone Town Blues
TTITLE8=Drifting Slim - Good Morning Baby
TTITLE9='Little George' Smith - Blues In The Dark
TTITLE10=Howlin' Wolf - My Baby Stole Off
TTITLE11=Jimmy Nelson - Bad Habit Blues
TTITLE12=Johnny 'Guitar' Watson - Don't Touch Me
TTITLE13=Roscoe Gordon - Dream Baby
TTITLE14=Jimmy McCracklin - Love When It Rains
TTITLE15=Jimmy Nelson - Baby Child
TTITLE16=Willie Nix - Try Me One More Time
TTITLE17=B.B. King - B.B. Blues
TTITLE18=Mumbles - Jumpin' Blues
TTITLE19=Lightnin' Hopkins - Jake Head Boogie
EXTD=
EXTT0=
EXTT1=
EXTT2=
EXTT3=
EXTT4=
EXTT5=
EXTT6=
EXTT7=
EXTT8=
EXTT9=
EXTT10=
EXTT11=
EXTT12=
EXTT13=
EXTT14=
EXTT15=
EXTT16=
EXTT17=
EXTT18=
EXTT19=
PLAYORDER=
